<mxfile host="app.diagrams.net" modified="2023-12-19T15:22:42.082Z" agent="5.0 (Windows NT 10.0; Win64; x64) AppleWebKit/537.36 (KHTML, like Gecko) Chrome/120.0.0.0 Safari/537.36 Edg/120.0.0.0" etag="CJ1zWuDj0_njCYNC0_vs" version="16.0.0" type="github">
  <diagram id="n379k5FUdmTXX9RUAzS3" name="Page-1">
    <mxGraphModel dx="1019" dy="813" grid="1" gridSize="10" guides="1" tooltips="1" connect="1" arrows="1" fold="1" page="1" pageScale="1" pageWidth="827" pageHeight="1169" math="0" shadow="0">
      <root>
        <mxCell id="0" />
        <mxCell id="1" parent="0" />
        <mxCell id="fBsnZ6TUeJUfDQz6wL04-1" value="Actor" style="shape=umlActor;verticalLabelPosition=bottom;verticalAlign=top;html=1;outlineConnect=0;" vertex="1" parent="1">
          <mxGeometry x="110" y="120" width="30" height="60" as="geometry" />
        </mxCell>
        <mxCell id="fBsnZ6TUeJUfDQz6wL04-2" value="Actor" style="shape=umlActor;verticalLabelPosition=bottom;verticalAlign=top;html=1;outlineConnect=0;" vertex="1" parent="1">
          <mxGeometry x="110" y="320" width="30" height="60" as="geometry" />
        </mxCell>
        <mxCell id="fBsnZ6TUeJUfDQz6wL04-7" value="Model" style="swimlane;" vertex="1" parent="1">
          <mxGeometry x="320" y="20" width="200" height="200" as="geometry" />
        </mxCell>
        <mxCell id="fBsnZ6TUeJUfDQz6wL04-9" value="Controler" style="swimlane;" vertex="1" parent="1">
          <mxGeometry x="320" y="270" width="200" height="200" as="geometry" />
        </mxCell>
        <mxCell id="fBsnZ6TUeJUfDQz6wL04-10" value="" style="ellipse;shape=cloud;whiteSpace=wrap;html=1;" vertex="1" parent="1">
          <mxGeometry x="640" y="150" width="120" height="80" as="geometry" />
        </mxCell>
      </root>
    </mxGraphModel>
  </diagram>
</mxfile>
